<svg xmlns="http://www.w3.org/2000/svg" viewBox="0 0 216.31 394.87"><title>Asset 1</title><g id="Layer_2" data-name="Layer 2"><g id="Layer_1-2" data-name="Layer 1"><path d="M121.34,207.19c1.42-1.77,2.16-2.65,2.84-3.57,13.11-17.83,26.2-35.67,39.9-54.32-6.12-5.14-11.69-10.69-18.08-15-12.41-8.39-25.48-15.8-37.9-24.18C98.6,103.69,89,97.18,80.64,89.38,55.12,65.43,59.5,27.27,89.32,8.91c25.46-15.67,60.77-10.12,78.36,12.33,5.88,7.51,10.41,19.26,10,26.06a6.37,6.37,0,0,1-1.37.33c-7,0-14,0-21,0-.8-5.64-1.09-11-2.36-16C150.07,20,144.28,10.3,132.78,5.24c-15.29-6.72-33.54,1.5-41.12,18.39-8.73,19.42-4.89,39.67,12,52.64,13.54,10.43,28.58,18.89,42.9,28.31,9.32,6.13,18.92,11.91,27.71,18.72,21.83,16.93,32.71,39.83,34.64,67.13a91.29,91.29,0,0,1-18.68,63.26c-1,1.29-2,2.52-3.58,4.45-2.35-10.4-5.23-19.94-6.44-29.69-.67-5.39,1.88-11.1,2.26-16.71,1.33-19.91-1.56-38.88-13.55-55.58-.68-.95-1.38-1.88-2.13-2.77a11.54,11.54,0,0,0-1.6-1.22l-33.08,44.72a20.08,20.08,0,0,0,3.39,0c14.27-3.13,24.74,2.76,32.51,14.16,7,10.27,9.29,22.33,12,34.18,1.76,7.61,3.35,15.28,5.66,22.73,4.26,13.77,12.28,23.24,28.25,22.57a8.06,8.06,0,0,1,2.39.82c-10.3,6.75-34.59-1.73-47.54-16.49-1.44.86-2.94,1.8-4.49,2.66-43,24.12-86.27,24.35-128.58-.69-29.15-17.26-41.45-51-33.17-84.1,11.38-45.59,52.49-70.52,99.2-60,6.15,1.38,14.22,1.88,17.53,5.93,3.18,3.9,1.6,11.9,1.66,18.09.14,15.17,0,30.33,0,45.5C121,203.57,121.15,204.93,121.34,207.19ZM100,214h.08c0-23-.23-46,.12-69,.13-8-3.34-9.69-9-10.72-26-4.72-49,7.11-60.48,31-8.6,18-9.83,37.19-8.61,56.66,2.47,39.53,29.56,66.89,68.94,69.87,7,.53,8.93-1.28,8.94-8.37Q100.06,248.76,100,214Zm20.91,74a9.3,9.3,0,0,0,2.09.13c15.76-4,28.07-13.24,38.55-25.24a4.42,4.42,0,0,0,.57-3.58c-3.58-12.79-7-25.64-11.14-38.24A69.26,69.26,0,0,0,143,205.24c-3.08-4.73-10-6.94-13-4.1-4.3,4.1-9.12,8.29-9.06,15.27.1,14,.06,27.94.07,41.91Z"/><path d="M98.17,394.87H80c5.71-2.48,4.54-8.66,4.62-13.66.15-8.86-.11-17.72,0-26.56a6.33,6.33,0,0,0-1.14-4.18c-.84-1-1.87-1.19-3-1.58-.81-.27-2.17-.41-.66-1.49a4,4,0,0,1,1.55-.55c2.91-.61,5.81-1.24,8.72-1.87l1.19,3.71c9.26-5,14.66-5.06,19.74-.37s6.91,13.65,3.63,20.8a17.49,17.49,0,0,1-8.47,8.7c-4.61,2.09-9.32,1-14.19,1.2-1.09.05-.32,7-.23,7.75C92.07,390,94.32,394.87,98.17,394.87Zm-7-31.48c0,2,.07,4,.16,6,.16,3.41,1,6.09,4.55,7a9.67,9.67,0,0,0,9.91-2.94,15.07,15.07,0,0,0,2.87-7.83,21.44,21.44,0,0,0-.32-8.41,11.48,11.48,0,0,0-4.71-6.81,8.83,8.83,0,0,0-8.76-.22c-2.74,1.42-3.54,4.23-3.63,7.12C91.19,359.36,91.16,361.38,91.18,363.39Z"/><path d="M54.08,365.14q0,6.71,0,13.42-18.43,0-36.86,0l-.09-1.2c3.9-.81,5.6-4,5.59-7.77,0-8.77-.18-17.52,0-26.27.08-4.08-.71-8.55-5-10.28l34.22,0,0,10.41c-.81-3.71-4.29-6.37-8-7.35-4.06-1.08-8.85-.83-13-.66a1.08,1.08,0,0,0-.75.22.92.92,0,0,0-.23.62c0,.65,0,7.11,0,15.95a.81.81,0,0,0,.11.55.9.9,0,0,0,.46.3c2.94,1.1,6.77,1.61,9.61-.06,1.71-1,5-4.54,5-6.68v15.85c-1.3-4-4.23-5.74-8.37-5.67-4.8.08-5.67-.13-6.07.27a3.16,3.16,0,0,0-.84,1.81l.15,17,11.6.1c3.93,0,5.1-.48,6.28-1.21,2.63-1.65,4.12-4.8,5.07-6.82A24.32,24.32,0,0,0,54.08,365.14Z"/><path d="M181.94,331.57c1.27-.77,2.95-.88,4.39-1.21.71-.16,7.61-1.49,7.61-1.75,0,2.14,0,3.74,0,5.34-.05,11.47-.12,22.95-.14,34.43,0,6.27,0,6.27,5.39,10.13H180.78A10.11,10.11,0,0,0,186.3,375c1.49-2.15,1.12-4.63,1.12-7.12,0-8.74-.18-17.46.28-26.17.14-2.67.05-6.62-2.56-8.12-1.1-.64-3.12-1.33-4.38-.93A3.7,3.7,0,0,1,181.94,331.57Z"/><path d="M141.86,347.33,153.58,345c0,6.32,0,12,0,17.76,0,2.5.1,5-.05,7.49-.23,3.55-.1,6.76,4.51,8.16H142.57l4-3.4-.2-24.17a4.77,4.77,0,0,0-1.29-2.17A5,5,0,0,0,141.86,347.33Z"/><circle cx="150.23" cy="334.18" r="4.01"/></g></g></svg>